<svg id="Calque_1" data-name="Calque 1" xmlns="http://www.w3.org/2000/svg" viewBox="0 0 174.04 174.04"><defs><style>.cls-1{fill:#fff;stroke:#1d1d1b;stroke-miterlimit:10;stroke-width:4px;}.cls-2{fill:#3aaa35;}.cls-3{fill:#ff330a;}</style></defs><rect class="cls-1" x="2" y="2" width="170.04" height="170.04" rx="24.87"/><path class="cls-2" d="M199.38,519.51h0v17h0c52.11,0,94.35-27.9,94.35-62.32h0c0-34.42-42.24-62.33-94.35-62.33h0V431.7h0c31.19,0,56.47,19.66,56.47,43.9h0C255.85,499.85,230.57,519.51,199.38,519.51Z" transform="translate(-158.9 -388.58)"/><rect class="cls-2" x="40.48" y="33.46" width="25.9" height="103.62"/><path class="cls-3" d="M293.73,430.28h0v-17h0c-52.11,0-94.35,27.9-94.35,62.32h0c0,34.42,42.24,62.33,94.35,62.33h0V518.08h0c-31.19,0-56.47-19.66-56.47-43.9h0C237.26,449.93,262.54,430.28,293.73,430.28Z" transform="translate(-158.9 -388.58)"/></svg>