<svg id="Calque_1" data-name="Calque 1" xmlns="http://www.w3.org/2000/svg" viewBox="0 0 319.24 63.49"><defs><style>.cls-1{fill:#fe330a;}.cls-2{fill:#1d1d1b;}.cls-3{fill:#fff;}</style></defs><path class="cls-1" d="M468.88,446.47a3.21,3.21,0,0,0-1.16-2.39l-10.5-8.76-9.56-8a3.34,3.34,0,0,0-4.24,0l-9.56,8-10.5,8.76a3.23,3.23,0,0,0-.89,1.18,3.16,3.16,0,0,0-.26,1.21v35.67a3.36,3.36,0,0,0,1,2.31,3.27,3.27,0,0,0,2.31,1h40.14a3.27,3.27,0,0,0,2.31-1,3.31,3.31,0,0,0,1-2.31Z" transform="translate(-419.87 -424.25)"/><path class="cls-2" d="M445.57,426.58a3.3,3.3,0,0,1,2.09.76l9.56,8,10.5,8.76a3.21,3.21,0,0,1,1.16,2.39v35.67a3.31,3.31,0,0,1-1,2.31,3.27,3.27,0,0,1-2.31,1H425.47a3.27,3.27,0,0,1-2.31-1,3.36,3.36,0,0,1-1-2.31q0-17.83,0-35.67a3.16,3.16,0,0,1,.26-1.21,3.23,3.23,0,0,1,.89-1.18l10.5-8.76,9.56-8a3.25,3.25,0,0,1,2.1-.76h.05m0-2.33h-.05a5.6,5.6,0,0,0-3.59,1.3l-9.57,8-10.5,8.76a5.61,5.61,0,0,0-1.53,2.05,5.53,5.53,0,0,0-.46,2.09v35.72a5.66,5.66,0,0,0,1.64,4,5.55,5.55,0,0,0,4,1.64h40.14a5.55,5.55,0,0,0,4-1.64,5.66,5.66,0,0,0,1.64-4V446.42a5.35,5.35,0,0,0-.46-2.09,5.49,5.49,0,0,0-1.53-2l-.58-.49-9.92-8.28-9.57-8a5.57,5.57,0,0,0-3.58-1.3Z" transform="translate(-419.87 -424.25)"/><rect class="cls-3" x="23.79" y="37.98" width="0.62" height="0.62"/><rect class="cls-3" x="15.71" y="37.84" width="0.62" height="0.62"/><path d="M489.77,443.77c1.21-.22,2.45-.44,3.72-.65s2.56-.4,3.85-.56,2.6-.28,3.9-.38,2.59-.14,3.86-.14a39.48,39.48,0,0,1,5.16.33,22.57,22.57,0,0,1,4.7,1.12,16.61,16.61,0,0,1,4,2.12,12.55,12.55,0,0,1,3.16,3.29,15.67,15.67,0,0,1,2.06,4.66,23.76,23.76,0,0,1,.73,6.22,28.62,28.62,0,0,1-.63,6.08,23.94,23.94,0,0,1-1.84,5.41,21,21,0,0,1-3,4.55,18,18,0,0,1-4,3.51,18.67,18.67,0,0,1-4.94,2.25,20.5,20.5,0,0,1-5.81.79,24.09,24.09,0,0,1-3.25-.22,31.77,31.77,0,0,1-3.45-.68l-3.37.41-.31,0c.08-.73.17-1.69.26-2.89s.18-2.59.26-4.18.17-3.36.25-5.31.15-4,.21-6.29.11-4.62.15-7.1,0-5.08,0-7.76c0-.55,0-1-.07-1.43a2.29,2.29,0,0,0-.35-1,1.74,1.74,0,0,0-.84-.61,4.34,4.34,0,0,0-1.5-.2,21,21,0,0,0-2.89.25Zm10.28.57c0,.57,0,1.41-.05,2.54s-.05,2.43-.08,3.93-.08,3.12-.13,4.89-.11,3.57-.16,5.42-.12,3.69-.19,5.52-.14,3.55-.2,5.18-.14,3.1-.22,4.42-.14,2.4-.21,3.23a20.25,20.25,0,0,0,3.11.59,26.74,26.74,0,0,0,2.81.15,16.89,16.89,0,0,0,5.12-.72,13.46,13.46,0,0,0,4-2,13.06,13.06,0,0,0,2.92-3.06,17.73,17.73,0,0,0,2-3.89,23.5,23.5,0,0,0,1.1-4.5,32.73,32.73,0,0,0,.35-4.89,26.85,26.85,0,0,0-.82-6.87,13.75,13.75,0,0,0-2.7-5.37,12.4,12.4,0,0,0-4.86-3.51,19.16,19.16,0,0,0-7.33-1.25c-.72,0-1.44,0-2.17.05S500.8,444.28,500.05,444.34Z" transform="translate(-419.87 -424.25)"/><path d="M536,457.62c-.19,1.29-.36,2.59-.49,3.89s-.25,2.56-.34,3.78-.14,2.37-.18,3.45-.06,2.07-.06,2.94c0,1.18,0,2.2.05,3a21.4,21.4,0,0,0,.17,2.14,7.42,7.42,0,0,0,.3,1.39,2.07,2.07,0,0,0,.44.8,1.26,1.26,0,0,0,.61.37,3.26,3.26,0,0,0,.8.09,7.24,7.24,0,0,0,1.76-.25,13.08,13.08,0,0,0,1.92-.69l.32.89a10.57,10.57,0,0,1-1.54,1c-.62.34-1.27.65-2,.94a17.1,17.1,0,0,1-2,.69,6.39,6.39,0,0,1-1.69.26,4.65,4.65,0,0,1-.87-.07,1.36,1.36,0,0,1-.71-.39,2.53,2.53,0,0,1-.56-.9,7.26,7.26,0,0,1-.41-1.62c-.11-.68-.19-1.53-.25-2.56s-.08-2.26-.08-3.71c0-.86,0-1.82,0-2.89s0-2.23.08-3.46.08-2.54.14-3.91.13-2.78.22-4.23a1.5,1.5,0,0,1,.25-.78,1.53,1.53,0,0,1,.55-.46,2.23,2.23,0,0,1,.69-.22,4.16,4.16,0,0,1,.67-.06A4.59,4.59,0,0,1,536,457.62Zm-1.48-7.71a2.16,2.16,0,0,1-1.06-.25,2.44,2.44,0,0,1-.78-.64,3,3,0,0,1-.5-.92A3.57,3.57,0,0,1,532,447a3.35,3.35,0,0,1,.26-1.35,3,3,0,0,1,.66-1,2.67,2.67,0,0,1,.91-.6,2.59,2.59,0,0,1,1-.2,2.51,2.51,0,0,1,1,.22,2.41,2.41,0,0,1,.79.59,2.65,2.65,0,0,1,.51.86,3,3,0,0,1,.18,1,3.76,3.76,0,0,1-.2,1.19,3.63,3.63,0,0,1-.58,1.06,2.81,2.81,0,0,1-.88.77A2.26,2.26,0,0,1,534.51,449.91Z" transform="translate(-419.87 -424.25)"/><path d="M560,476.32l.26.14a2.28,2.28,0,0,1,.3.21,1.36,1.36,0,0,1,.24.24.36.36,0,0,1,.1.24.27.27,0,0,1,0,.14,13.66,13.66,0,0,1-2.06,2.31,12.83,12.83,0,0,1-2.28,1.64,10.49,10.49,0,0,1-2.41,1,9.74,9.74,0,0,1-2.42.31,8.32,8.32,0,0,1-3.75-.83A9,9,0,0,1,545,479.4a10.83,10.83,0,0,1-1.91-3.4,12.43,12.43,0,0,1-.69-4.18,16.79,16.79,0,0,1,.4-3.65,16.35,16.35,0,0,1,1.16-3.48,15.73,15.73,0,0,1,1.85-3.08,12.89,12.89,0,0,1,2.48-2.47,11.35,11.35,0,0,1,3-1.64,10.45,10.45,0,0,1,3.57-.6,8.24,8.24,0,0,1,2.4.34,6.72,6.72,0,0,1,2,1,4.84,4.84,0,0,1,1.37,1.58,4.36,4.36,0,0,1,.51,2.13,4.47,4.47,0,0,1-1.13,3,9,9,0,0,1-3.13,2.2,21.9,21.9,0,0,1-4.7,1.46,50.65,50.65,0,0,1-5.84.83v.29a13.59,13.59,0,0,0,.56,4,9.91,9.91,0,0,0,1.52,3.09,7,7,0,0,0,2.29,2,5.75,5.75,0,0,0,2.83.72,7.27,7.27,0,0,0,3.14-.76A11.34,11.34,0,0,0,560,476.32Zm-3.21-13.69a4.21,4.21,0,0,0-.26-1.47,3.58,3.58,0,0,0-.74-1.18,3.39,3.39,0,0,0-2.51-1.08,5,5,0,0,0-2,.39,5.6,5.6,0,0,0-1.62,1.06,7.49,7.49,0,0,0-1.26,1.57,10.79,10.79,0,0,0-.93,1.9,13.34,13.34,0,0,0-.62,2.07,17.4,17.4,0,0,0-.35,2.06,31.24,31.24,0,0,0,4.34-.59,14.46,14.46,0,0,0,3.24-1.07,5.62,5.62,0,0,0,2-1.57A3.33,3.33,0,0,0,556.77,462.63Z" transform="translate(-419.87 -424.25)"/><path d="M573,444.75q-.72,3.24-1.2,6.69t-.83,6.81l1.56.05,1.42,0,1.19,0h.9a13.63,13.63,0,0,0,2.54-.19c0,.2.1.37.13.53a1.8,1.8,0,0,1,0,.44.93.93,0,0,1-.62,1,5.83,5.83,0,0,1-1.8.22c-.75,0-1.59-.05-2.51-.14s-1.94-.17-3.05-.25c-.12,1.21-.23,2.4-.31,3.55s-.15,2.24-.21,3.26-.08,2-.11,2.85,0,1.64,0,2.29a24.32,24.32,0,0,0,.19,3.25,7.79,7.79,0,0,0,.66,2.43,3.6,3.6,0,0,0,1.31,1.53,3.94,3.94,0,0,0,2.12.53,7.38,7.38,0,0,0,2.05-.33,15,15,0,0,0,2.59-1,1.81,1.81,0,0,1,.52,1.13c-.7.46-1.41.89-2.13,1.27a21.94,21.94,0,0,1-2.11,1,14.43,14.43,0,0,1-2,.63,8.16,8.16,0,0,1-1.84.22,5.07,5.07,0,0,1-2.09-.42,3.83,3.83,0,0,1-1.64-1.48,8.49,8.49,0,0,1-1.07-2.87,22.27,22.27,0,0,1-.39-4.57c0-1,0-2.1.06-3.2s.07-2.21.13-3.33.13-2.25.22-3.38.2-2.23.31-3.32c-.9,0-1.73.05-2.5.11a11.91,11.91,0,0,0-2,.3.6.6,0,0,1,0-.24.91.91,0,0,1,.35-.67,3.6,3.6,0,0,1,1-.58,8,8,0,0,1,1.5-.42,14.68,14.68,0,0,1,1.9-.24c.27-2.38.54-4.62.84-6.73s.59-4,.89-5.66a1.66,1.66,0,0,1,.31-.74,2,2,0,0,1,.54-.46,2.48,2.48,0,0,1,.66-.24,4.32,4.32,0,0,1,.7-.06,4,4,0,0,1,1,.12A3.44,3.44,0,0,1,573,444.75Z" transform="translate(-419.87 -424.25)"/><path d="M600.6,441.51a19.24,19.24,0,0,1,4.14.41,17.51,17.51,0,0,1,3.28,1,8.48,8.48,0,0,1,2.16,1.28,1.86,1.86,0,0,1,.79,1.25c0,.78,0,1.8-.09,3.05s-.13,2.76-.22,4.53l-1.48,0c0-.16,0-.31,0-.45s0-.29,0-.45a10.92,10.92,0,0,0-.26-2.25,6.32,6.32,0,0,0-.9-2,8,8,0,0,0-1.63-1.72,10.35,10.35,0,0,0-2.07-1.27A11,11,0,0,0,602,444a12.56,12.56,0,0,0-2.61-.27,11.66,11.66,0,0,0-4.15.71,11.09,11.09,0,0,0-3.33,2,13.08,13.08,0,0,0-2.55,3,18.26,18.26,0,0,0-1.79,3.72,23.8,23.8,0,0,0-1.06,4.23,29.13,29.13,0,0,0-.35,4.49,27.89,27.89,0,0,0,.44,5,22.32,22.32,0,0,0,1.27,4.37,17.08,17.08,0,0,0,2,3.58,13.26,13.26,0,0,0,2.6,2.68,11.23,11.23,0,0,0,3.12,1.68,10.68,10.68,0,0,0,3.54.58,13.18,13.18,0,0,0,2.67-.28,15.24,15.24,0,0,0,2.79-.89,18.94,18.94,0,0,0,2.85-1.53,21.65,21.65,0,0,0,2.87-2.23l.32.17a2.75,2.75,0,0,1,.33.23,2.37,2.37,0,0,1,.27.28.58.58,0,0,1,.11.31.57.57,0,0,1-.14.29,22.18,22.18,0,0,1-3.38,3.09,18.38,18.38,0,0,1-3.42,2,15.85,15.85,0,0,1-3.47,1.1,18.82,18.82,0,0,1-3.49.33A14.8,14.8,0,0,1,593,482a15.16,15.16,0,0,1-3.88-1.83,15.76,15.76,0,0,1-3.23-2.89,17.85,17.85,0,0,1-2.48-3.81,21.11,21.11,0,0,1-1.57-4.6,23.91,23.91,0,0,1-.56-5.24,27,27,0,0,1,.54-5.34,25.38,25.38,0,0,1,1.6-5.14,22,22,0,0,1,2.68-4.59,18.36,18.36,0,0,1,3.76-3.71,17.4,17.4,0,0,1,4.84-2.47A18.87,18.87,0,0,1,600.6,441.51Z" transform="translate(-419.87 -424.25)"/><path d="M621.62,460.26c0,.77,0,1.6-.08,2.48s-.11,1.78-.18,2.69l-.24,2.71c-.09.91-.17,1.76-.24,2.57s-.14,1.55-.19,2.22-.07,1.25-.07,1.7a4.7,4.7,0,0,0,.76,3,2.53,2.53,0,0,0,2,.93,4.28,4.28,0,0,0,3-1.56,16.17,16.17,0,0,0,2.9-4.56,40.48,40.48,0,0,0,2.36-6.74,43.17,43.17,0,0,0,1.24-8.07l3.61-.44h.28c-.11,1.08-.2,2.23-.28,3.44s-.17,2.42-.23,3.63-.12,2.4-.16,3.55-.05,2.23-.05,3.21a26.56,26.56,0,0,0,.32,4.54,10.62,10.62,0,0,0,.84,2.78,3.24,3.24,0,0,0,1.17,1.4,2.56,2.56,0,0,0,1.32.38,2.86,2.86,0,0,0,.77-.1,5.21,5.21,0,0,0,.73-.25,4.48,4.48,0,0,0,.62-.31l.49-.31.56.79a7.71,7.71,0,0,1-1.13,1,8.42,8.42,0,0,1-1.33.78,7.24,7.24,0,0,1-1.46.52,6.27,6.27,0,0,1-1.55.19,4.92,4.92,0,0,1-1.92-.39,4.16,4.16,0,0,1-1.65-1.31,7.41,7.41,0,0,1-1.15-2.46,14.21,14.21,0,0,1-.43-3.82c0-.49,0-1,0-1.48s.06-1,.11-1.59.1-1.15.17-1.8.17-1.34.27-2.12l-.19,0a45.37,45.37,0,0,1-2.51,7.18,23.75,23.75,0,0,1-2.78,4.67,9.59,9.59,0,0,1-2.86,2.53,5.88,5.88,0,0,1-2.73.76,5.11,5.11,0,0,1-1.86-.34,4.05,4.05,0,0,1-1.6-1.09,5.53,5.53,0,0,1-1.11-2,9.68,9.68,0,0,1-.42-3.07c0-.79,0-1.72.14-2.77s.19-2.17.29-3.36.21-2.41.3-3.68.14-2.52.14-3.76c0-.5,0-.93,0-1.29a3,3,0,0,0-.22-.91,1.14,1.14,0,0,0-.51-.53,2,2,0,0,0-.91-.17,9.09,9.09,0,0,0-1.51.17c-.62.12-1.27.27-2,.46l-.25-1.22c.93-.33,1.79-.62,2.59-.86s1.52-.45,2.15-.61,1.17-.28,1.61-.36a5.81,5.81,0,0,1,1-.12,2,2,0,0,1,1,.23,1.58,1.58,0,0,1,.64.64,3.56,3.56,0,0,1,.33,1A9.11,9.11,0,0,1,621.62,460.26Z" transform="translate(-419.87 -424.25)"/><path d="M650.35,457.62c-.2,1.29-.36,2.59-.5,3.89s-.25,2.56-.33,3.78-.15,2.37-.19,3.45-.06,2.07-.06,2.94c0,1.18,0,2.2.05,3s.09,1.56.17,2.14a7.42,7.42,0,0,0,.3,1.39,2.08,2.08,0,0,0,.45.8,1.22,1.22,0,0,0,.61.37,3.18,3.18,0,0,0,.79.09,7.25,7.25,0,0,0,1.77-.25,12.58,12.58,0,0,0,1.91-.69l.33.89a11.14,11.14,0,0,1-1.54,1,20.91,20.91,0,0,1-2,.94,17.61,17.61,0,0,1-2,.69,6.46,6.46,0,0,1-1.7.26,4.79,4.79,0,0,1-.87-.07,1.33,1.33,0,0,1-.7-.39,2.68,2.68,0,0,1-.57-.9,7.33,7.33,0,0,1-.4-1.62,23.31,23.31,0,0,1-.25-2.56c-.06-1-.09-2.26-.09-3.71,0-.86,0-1.82,0-2.89s0-2.23.08-3.46.07-2.54.13-3.91.13-2.78.22-4.23a1.51,1.51,0,0,1,.26-.78,1.58,1.58,0,0,1,.54-.46,2.42,2.42,0,0,1,.69-.22,4.27,4.27,0,0,1,.68-.06A4.59,4.59,0,0,1,650.35,457.62Zm-1.49-7.71a2.12,2.12,0,0,1-1.05-.25A2.59,2.59,0,0,1,647,449a3,3,0,0,1-.49-.92,3.28,3.28,0,0,1-.17-1.07,3.35,3.35,0,0,1,.25-1.35,2.84,2.84,0,0,1,.67-1,2.71,2.71,0,0,1,1.87-.8,2.43,2.43,0,0,1,1.84.81,2.65,2.65,0,0,1,.51.86,3,3,0,0,1,.18,1,3.51,3.51,0,0,1-.21,1.19,3.86,3.86,0,0,1-.57,1.06,2.74,2.74,0,0,1-.89.77A2.24,2.24,0,0,1,648.86,449.91Z" transform="translate(-419.87 -424.25)"/><path d="M659.55,475.45a5.05,5.05,0,0,0,2.1,3.77,6.07,6.07,0,0,0,1.85.88,7,7,0,0,0,2,.29,6.43,6.43,0,0,0,1.81-.25,5,5,0,0,0,1.53-.74,3.74,3.74,0,0,0,1.07-1.17,3.19,3.19,0,0,0,.4-1.57,3,3,0,0,0-.43-1.59,4.73,4.73,0,0,0-1.14-1.24,9.81,9.81,0,0,0-1.66-1l-2-1-1.82-.86c-.61-.29-1.19-.61-1.76-.95a14.19,14.19,0,0,1-1.6-1.11,7.66,7.66,0,0,1-1.29-1.32,5.74,5.74,0,0,1-.87-1.62,5.92,5.92,0,0,1-.32-2,5.67,5.67,0,0,1,.41-2.17A6.23,6.23,0,0,1,659,460a8.1,8.1,0,0,1,1.63-1.39,10.9,10.9,0,0,1,2-1,12.77,12.77,0,0,1,4.35-.79,10.73,10.73,0,0,1,2.58.3,7.32,7.32,0,0,1,2.13.87,4.6,4.6,0,0,1,1.45,1.39,3.26,3.26,0,0,1,.54,1.84,3.07,3.07,0,0,1-.14.85,2.4,2.4,0,0,1-.46.86,2.77,2.77,0,0,1-.85.68,3,3,0,0,1-1.3.28,5.5,5.5,0,0,1-1.5-.22l0-.17a5.63,5.63,0,0,0,.34-1,3.85,3.85,0,0,0,.1-.86,2.27,2.27,0,0,0-.4-1.32,3,3,0,0,0-1-.87,4.18,4.18,0,0,0-1.29-.5,6.64,6.64,0,0,0-1.39-.15,6.91,6.91,0,0,0-2.16.32A5.13,5.13,0,0,0,662,460a4,4,0,0,0-1,1.22,3.14,3.14,0,0,0-.35,1.42,3,3,0,0,0,.5,1.68,5.77,5.77,0,0,0,1.31,1.36,13.79,13.79,0,0,0,1.88,1.17c.71.36,1.46.72,2.23,1.09s1.72.83,2.57,1.27a12.21,12.21,0,0,1,2.29,1.49,7.24,7.24,0,0,1,1.63,1.92,5.07,5.07,0,0,1,.62,2.55,6.18,6.18,0,0,1-.78,3.12,7.34,7.34,0,0,1-2.07,2.3,9.5,9.5,0,0,1-3,1.42,12.68,12.68,0,0,1-3.49.49,13.52,13.52,0,0,1-1.87-.14,12.55,12.55,0,0,1-1.86-.41,11.38,11.38,0,0,1-1.72-.67,7,7,0,0,1-1.41-.92,4.33,4.33,0,0,1-1-1.16,3,3,0,0,1-.35-1.41,2.16,2.16,0,0,1,.28-1.12,2.24,2.24,0,0,1,.75-.75,3.41,3.41,0,0,1,1-.44,5.69,5.69,0,0,1,1.17-.16Z" transform="translate(-419.87 -424.25)"/><path d="M684,457.62c-.19,1.29-.36,2.59-.49,3.89s-.25,2.56-.34,3.78-.14,2.37-.18,3.45-.06,2.07-.06,2.94c0,1.18,0,2.2.05,3a21.4,21.4,0,0,0,.17,2.14,7.42,7.42,0,0,0,.3,1.39,2.07,2.07,0,0,0,.44.8,1.26,1.26,0,0,0,.61.37,3.26,3.26,0,0,0,.8.09,7.24,7.24,0,0,0,1.76-.25,13.08,13.08,0,0,0,1.92-.69l.32.89a10.57,10.57,0,0,1-1.54,1c-.62.34-1.27.65-2,.94a17.61,17.61,0,0,1-2,.69,6.52,6.52,0,0,1-1.7.26,4.65,4.65,0,0,1-.87-.07,1.36,1.36,0,0,1-.71-.39,2.53,2.53,0,0,1-.56-.9,7.26,7.26,0,0,1-.41-1.62c-.11-.68-.19-1.53-.25-2.56s-.08-2.26-.08-3.71c0-.86,0-1.82,0-2.89s0-2.23.08-3.46.08-2.54.14-3.91.13-2.78.22-4.23a1.5,1.5,0,0,1,.25-.78,1.53,1.53,0,0,1,.55-.46,2.42,2.42,0,0,1,.69-.22,4.16,4.16,0,0,1,.67-.06A4.59,4.59,0,0,1,684,457.62Zm-1.48-7.71a2.16,2.16,0,0,1-1.06-.25,2.44,2.44,0,0,1-.78-.64,3,3,0,0,1-.5-.92A3.57,3.57,0,0,1,680,447a3.35,3.35,0,0,1,.26-1.35,3,3,0,0,1,.66-1,2.77,2.77,0,0,1,.91-.6,2.63,2.63,0,0,1,1-.2,2.51,2.51,0,0,1,1,.22,2.41,2.41,0,0,1,.79.59,2.65,2.65,0,0,1,.51.86,3,3,0,0,1,.18,1,3.76,3.76,0,0,1-.2,1.19,3.86,3.86,0,0,1-.57,1.06,2.85,2.85,0,0,1-.89.77A2.26,2.26,0,0,1,682.5,449.91Z" transform="translate(-419.87 -424.25)"/><path d="M693.89,462a5.57,5.57,0,0,0-.11-1.18,1.83,1.83,0,0,0-.31-.76,1.2,1.2,0,0,0-.54-.4,2.18,2.18,0,0,0-.77-.12,7.89,7.89,0,0,0-1.46.17c-.57.12-1.22.27-2,.46L688.5,459c.81-.29,1.58-.55,2.33-.78s1.43-.43,2-.6,1.18-.3,1.65-.4a6.47,6.47,0,0,1,1.13-.13,2,2,0,0,1,1.54.59,2.9,2.9,0,0,1,.56,2c0,.11,0,.37,0,.79s-.05.94-.09,1.58-.09,1.36-.15,2.19-.12,1.7-.19,2.63-.16,1.9-.25,2.89-.19,2-.29,3l.1,0a47.89,47.89,0,0,1,2.78-7.42,25.72,25.72,0,0,1,3-4.91,10.81,10.81,0,0,1,3.05-2.72,6,6,0,0,1,2.9-.84,4.86,4.86,0,0,1,1.84.36,4.23,4.23,0,0,1,1.58,1.14,6,6,0,0,1,1.1,2,9.71,9.71,0,0,1,.41,3c0,.34,0,.79-.06,1.37s-.09,1.21-.15,1.92-.12,1.45-.2,2.24-.13,1.56-.19,2.32-.11,1.49-.15,2.18-.06,1.28-.06,1.8a17.89,17.89,0,0,0,.11,2.16,4.11,4.11,0,0,0,.37,1.32,1.38,1.38,0,0,0,.68.67,2.69,2.69,0,0,0,1,.18,7.53,7.53,0,0,0,1.84-.25,12.79,12.79,0,0,0,1.93-.69l.32.89a9.71,9.71,0,0,1-1.55,1,21.11,21.11,0,0,1-2,.94,16.47,16.47,0,0,1-2,.69,7.1,7.1,0,0,1-1.81.26,2.05,2.05,0,0,1-1.45-.49,3.08,3.08,0,0,1-.79-1.35,8.48,8.48,0,0,1-.34-2c0-.76-.08-1.58-.08-2.46,0-1.07,0-2.17.11-3.3s.16-2.2.25-3.23.17-1.95.25-2.78.11-1.51.11-2a4.71,4.71,0,0,0-.75-2.94,2.42,2.42,0,0,0-2-.94,3.47,3.47,0,0,0-2.08.83,11.76,11.76,0,0,0-2.17,2.29,24.18,24.18,0,0,0-2.08,3.45,36.87,36.87,0,0,0-1.8,4.29,41.81,41.81,0,0,0-1.33,4.84,33.45,33.45,0,0,0-.66,5l-3.56.45-.28,0c.09-1.08.18-2.26.26-3.53s.15-2.57.22-3.88.13-2.61.18-3.9.1-2.5.14-3.62.06-2.12.08-3S693.89,462.51,693.89,462Z" transform="translate(-419.87 -424.25)"/><path d="M737.92,476.32l.26.14a2.28,2.28,0,0,1,.3.21,1.36,1.36,0,0,1,.24.24.36.36,0,0,1,.1.24.2.2,0,0,1-.05.14,13.62,13.62,0,0,1-2,2.31,12.89,12.89,0,0,1-2.29,1.64,10.49,10.49,0,0,1-2.41,1,9.68,9.68,0,0,1-2.42.31,8.38,8.38,0,0,1-3.75-.83,9,9,0,0,1-2.93-2.29A10.66,10.66,0,0,1,721,476a12.43,12.43,0,0,1-.69-4.18,17.3,17.3,0,0,1,1.56-7.13,16.24,16.24,0,0,1,1.85-3.08,13.18,13.18,0,0,1,2.48-2.47,11.5,11.5,0,0,1,3-1.64,10.45,10.45,0,0,1,3.57-.6,8.31,8.31,0,0,1,2.41.34,6.55,6.55,0,0,1,2,1,4.84,4.84,0,0,1,1.37,1.58,4.36,4.36,0,0,1,.51,2.13,4.42,4.42,0,0,1-1.13,3,9,9,0,0,1-3.13,2.2,21.72,21.72,0,0,1-4.7,1.46,50.47,50.47,0,0,1-5.83.83v.29a13.6,13.6,0,0,0,.55,4,9.92,9.92,0,0,0,1.53,3.09,7,7,0,0,0,2.28,2,5.81,5.81,0,0,0,2.83.72,7.34,7.34,0,0,0,3.15-.76A11.31,11.31,0,0,0,737.92,476.32Zm-3.2-13.69a4,4,0,0,0-.27-1.47,3.73,3.73,0,0,0-.73-1.18,3.44,3.44,0,0,0-2.52-1.08,5,5,0,0,0-2,.39,5.6,5.6,0,0,0-1.62,1.06,7.49,7.49,0,0,0-1.26,1.57,12.39,12.39,0,0,0-.93,1.9,16,16,0,0,0-.62,2.07,17.33,17.33,0,0,0-.34,2.06,31.45,31.45,0,0,0,4.34-.59,14.46,14.46,0,0,0,3.24-1.07,5.7,5.7,0,0,0,2-1.57A3.4,3.4,0,0,0,734.72,462.63Z" transform="translate(-419.87 -424.25)"/><path class="cls-3" d="M432.74,458.65a20.64,20.64,0,0,0,1.84,11.73,19.76,19.76,0,0,0,3.65,5.14c.31.27,5.16,4.33,11.34,2.46a12.57,12.57,0,0,0,7.86-7.6l1.08-11.73Z" transform="translate(-419.87 -424.25)"/><path class="cls-3" d="M458.44,446.12c.31,3.11.55,6.79.55,10.83,0,7.31-1.14,12.51-3.3,16s-5.22,5.55-9.5,5.55a11.88,11.88,0,0,1-10.29-5.67c-2.48-3.69-3.81-9.77-3.81-17.43,0-3.63.12-6.67.31-9.25a40.84,40.84,0,0,1,26,0ZM433,458.63a34,34,0,0,0-.23,4.65c0,9.83,4.85,15.17,13.35,15.17,7.41.06,12.13-4.7,12.13-14.43a29.89,29.89,0,0,0-.42-5.39Z" transform="translate(-419.87 -424.25)"/><path d="M446.19,479.18a12.32,12.32,0,0,1-1.37-.07c-7.77-.52-12.33-5.78-12.7-14.65a52.14,52.14,0,0,1-.73-9.09c0-3.44.1-6.56.31-9.3l0-.46.44-.15a41.46,41.46,0,0,1,26.48,0l.43.14.05.45c.36,3.62.55,7.28.55,10.9a47.32,47.32,0,0,1-.8,9.32c-.33,4.18-1.63,7.41-3.87,9.63a13.73,13.73,0,0,1-8.83,3.28ZM445,477.71c.42,0,.85,0,1.29,0s.79,0,1.17,0a9.92,9.92,0,0,0,7.66-5.16,19.32,19.32,0,0,0,2.41-6.46c.05-.66.08-1.35.08-2.07a31.68,31.68,0,0,0-.31-4.68H433.65c-.13,1.21-.15,2.79-.15,3.94,0,.32,0,.63,0,.93a22,22,0,0,0,3,8.2A11.22,11.22,0,0,0,445,477.71Zm-12.12-19.78h25.43c0-.32,0-.65,0-1,0-3.42-.17-6.88-.51-10.3a40.19,40.19,0,0,0-24.71,0c-.19,2.59-.28,5.52-.28,8.73C432.79,456.24,432.81,457.1,432.85,457.93Z" transform="translate(-419.87 -424.25)"/><rect x="15.5" y="20.24" width="0.46" height="13.51"/><rect x="19.76" y="20.13" width="0.46" height="14.26"/><rect class="cls-2" x="17.66" y="38.69" width="3.94" height="3.94" rx="1.97"/><rect class="cls-2" x="29.74" y="38.69" width="3.94" height="3.94" rx="1.97"/></svg>